<svg width="1440" height="189" preserveAspectRatio="none" fill="none" xmlns="http://www.w3.org/2000/svg"><path d="m188.857 41.081 3.902-4.3 11.262-8.492c4.229-3.19 9.809-4.064 14.738-2.67 9.451 2.673 24.021 6.36 24.999 5.786.597-.35 2.23-2.127 4.174-4.24 2.64-2.87 5.852-6.363 7.816-7.753l11.671-6.41c3.384-1.625 7.299-.769 9.905 2.167l.646.728 4.428 5.273 7.803 1.703c.783.17 1.506.591 2.085 1.213l4.214 4.527c1.842 1.978 4.697 2.086 6.651.25l.59-.555c1.33-1.249 3.201-1.442 4.708-.486l5.652 3.583 9.113 5.376h1.52c3.997 0 7.785 2.026 10.325 5.523l.945 1.3h7.354c3.957 0 7.822-1.355 11.087-3.89l2.782-2.158a3.596 3.596 0 0 1 2.21-.775h8.062c1.011 0 1.967.518 2.601 1.408l6.511 9.137 6.714-3.722 12.31 3.722h13.11l18.238 5.02 19.971-11.43h14.708l14.548 2.688 10.383-11.65a1.576 1.576 0 0 1 1.176-.549h10.024l10.871-8.27 13.749-3.723 11.67-9.098 18.066-8.684c5.403-2.795 11.73-1.95 16.412 2.19l.424.376 30.166 18.938 11.67 8.271 18.699 3.252 11.148-3.252.986-1.203c1.259-1.536 3.381-1.62 4.733-.187l3.961 4.2 7.499.442 2.269-2.13c4.614-4.334 10.419-6.705 16.412-6.705l7.034-2.688 14.868-9.718h11.991l18.705 5.996 6.394 6.41 16.147 2.688 4.317 8.271h26.858l9.77-4.62L806.048 16.7c1.78-2.049 4.352-2.942 6.84-2.376l10.234 5.09 12.303 6.41 7.049-9.099 4.149-3.96c1.415-1.351 3.531-1.142 4.718.467l4.562 6.181 3.837 9.098 9.794 5.107a23.777 23.777 0 0 1 4.328 2.91l5.702 4.803 5.874-1.837c5.446-1.703 11.282-.331 15.681 3.685l1.147 1.047h5.26c1.446 0 2.888.118 4.316.352l12.2-6.744.441-.35c4.866-3.859 11.223-4.33 16.49-1.219l17.642 9.738 11.237 9.774 13.559 4.528 10.477 8.9 10.012.592c.44.026.85.247 1.15.617l4.02 5.011 17.89 5.731 2.57-.32 14.69.867 15.2 9.855 6.81 2.183 15.85-3.383 13.1.773 12.46-2.991 6.53 4.113 6.93-8.74c.67-.853 1.65-1.313 2.66-1.254l8.05.476c.79.046 1.54.362 2.17.904l2.68 2.32c3.14 2.723 6.94 4.305 10.89 4.538l7.35.434 1-1.243c2.7-3.342 6.57-5.142 10.56-4.906l1.52.09 9.35-4.832 5.81-3.245c1.55-.866 3.41-.562 4.68.764l.56.589c1.87 1.948 4.73 2.009 6.66.142l4.41-4.273a3.985 3.985 0 0 1 2.14-1.088l7.87-1.24 4.66-5.005.68-.688c2.74-2.779 6.69-3.403 9.99-1.58l11.36 7.09c1.9 1.502 4.95 5.18 7.45 8.202 1.85 2.225 3.4 4.095 3.98 4.48.95.633 15.67-2.191 25.23-4.303 4.99-1.1 10.52.101 14.59 3.535l10.86 9.145 3.7 4.525c2.43 2.972 5.42 5.286 8.75 6.77l7.72 5.383 4.12 2.879h8.53l6.76-2.879h9.06l26.61-27.819c2.13-2.222 5.74-2.016 7.6.434l11.56 15.232 11.12 3.664 8.27 8.489 9.18 9.725 5.92 7.285 6.42 4.684 6.42 4.163V184H568.257l-208.05-11.077-167.448.534L0 172.906v-66.423l7.273 3.345 10.729-3.332 7.947-6.087h4.842l6.758-3.944 3.84-3.715 6.811-3.164 8.742 7.816 5.023-4.651 4.746-1.924 6.373-6.833 4.52-7.243 8.344-6.303 8.742-8.104 16.689-15.018 20.357 15.018 32.152-5.178 15.923-9.84c3.39-1.285 6.482-3.42 9.046-6.245Z" fill="#F3F4F6"/><path d="m1251.14 123.755-3.9-1.964-11.26-3.877c-4.23-1.456-9.81-1.855-14.74-1.218-9.45 1.22-24.02 2.904-25 2.641-.59-.16-2.23-.971-4.17-1.936-2.64-1.31-5.85-2.905-7.82-3.539l-11.67-2.926c-3.38-.742-7.3-.351-9.9.989l-.65.332-4.43 2.408-7.8.777c-.78.078-1.51.27-2.09.554l-4.21 2.066c-1.84.903-4.7.953-6.65.115l-.59-.254c-1.33-.57-3.2-.658-4.71-.222l-5.65 1.636-9.11 2.454h-1.52c-4 0-7.79.925-10.33 2.522l-.94.593h-7.36c-3.95 0-7.82-.619-11.09-1.775l-2.78-.986c-.65-.23-1.42-.354-2.21-.354h-8.06c-1.01 0-1.97.237-2.6.643l-6.51 4.171-6.72-1.699-12.31 1.699h-13.1l-18.24 2.292-19.974-5.218h-14.708l-14.548 1.227-10.383-5.319c-.313-.16-.736-.25-1.176-.25h-10.024l-10.871-3.776-13.749-1.699-11.67-4.153-18.066-3.965c-5.403-1.276-11.73-.89-16.412 1l-.424.171-30.166 8.646-11.67 3.776-18.699 1.485-11.148-1.485-.986-.549c-1.259-.701-3.381-.74-4.733-.086l-3.961 1.918-7.499.202-2.269-.973c-4.614-1.978-10.419-3.061-16.412-3.061l-7.034-1.227-14.868-4.436h-11.991l-18.705 2.737-6.394 2.926-16.147 1.228-4.317 3.775h-26.858l-9.77-2.108-13.436-7.059c-1.78-.936-4.352-1.344-6.84-1.085l-10.234 2.323-12.303 2.926-7.049-4.153-4.149-1.808c-1.415-.617-3.531-.521-4.718.213l-4.562 2.822-3.837 4.154-9.794 2.331a34.064 34.064 0 0 0-4.328 1.328l-5.702 2.193-5.874-.839c-5.446-.777-11.282-.151-15.681 1.683l-1.147.478h-5.26c-1.446 0-2.888.053-4.316.161l-12.2-3.079-.441-.16c-4.865-1.762-11.223-1.977-16.49-.557l-17.642 4.446-11.237 4.462-13.559 2.067-10.477 4.063-10.01.27c-.44.012-.853.113-1.149.282l-4.024 2.288-17.886 2.616-2.576-.146-14.688.396-15.199 4.499-6.812.996-15.851-1.544-13.092.353-12.464-1.366-6.535 1.878-6.921-3.99c-.675-.389-1.654-.6-2.662-.572l-8.052.217c-.788.021-1.545.165-2.172.413l-2.678 1.059c-3.145 1.243-6.942 1.965-10.894 2.072l-7.344.198-1.003-.568c-2.697-1.526-6.573-2.347-10.564-2.24l-1.519.041-9.347-2.205-5.809-1.482c-1.549-.395-3.409-.256-4.679.349l-.565.269c-1.866.889-4.723.917-6.653.065l-4.416-1.951c-.607-.268-1.349-.44-2.138-.497l-7.871-.566-4.663-2.285-.679-.314c-2.738-1.268-6.687-1.554-9.992-.721l-11.36 3.236c-1.898.687-4.945 2.365-7.449 3.745-1.844 1.016-3.394 1.87-3.974 2.046-.95.288-15.67-1.001-25.231-1.965-4.987-.503-10.518.046-14.595 1.614l-10.857 4.175-3.699 2.065c-2.43 1.357-5.42 2.414-8.747 3.091l-7.724 2.457-4.117 1.315h-8.531l-6.761-1.315H93.1L64.86 141.396a4.998 4.998 0 0 0-4.73.228l-12.8 7.699-11.12 1.673-8.267 3.875-9.186 4.44-5.92 3.326-6.42 2.138L0 166.676V189h1440v-35.388l-7.27 1.527-10.73-1.521-7.95-2.779h-4.84l-6.76-1.801-3.84-1.695-6.81-1.445-8.74 3.568-5.02-2.123-4.75-.878-6.37-3.12-4.52-3.306-8.35-2.878-8.74-3.7-16.69-6.856-20.36 6.856-32.15-2.364-15.92-4.492c-3.39-.586-6.48-1.561-9.05-2.85Z" fill="#F9FAFB"/></svg>